<?xml version="1.0" encoding="UTF-8"?> <svg xmlns="http://www.w3.org/2000/svg" xmlns:xlink="http://www.w3.org/1999/xlink" version="1.1" id="Layer_1" x="0px" y="0px" viewBox="0 0 368 224.7" style="enable-background:new 0 0 368 224.7;" xml:space="preserve"> <style type="text/css"> .st0{fill-rule:evenodd;clip-rule:evenodd;} .st1{fill:#E0D3A7;} .st2{fill:#CBA63E;} </style> <g> <path class="st0" d="M241.3,191.9c2.6-1.5,1.5-3.2,0.8-5c-2.3-5.6-4.6-11.2-6.7-16.8c-0.7-1.7-1.6-2.5-3.6-2.5 c-5.9,0.1-11.7,0.1-17.6,0c-1.9,0-2.8,0.7-3.5,2.5c-1.7,5.2-3.7,10.3-5.5,15.5c-0.3,0.8-0.5,1.5-0.6,2.3c-0.3,1.8,0.6,2.9,2.5,3.2 c0.2,0,0.5,0,0.7,0.1c0.6,0.3,1.1,0.6,1.7,0.9c-0.6,0.3-1.2,0.7-1.9,0.7c-1.8,0.1-3.7-0.1-5.6-0.1c-4.1,0-8.3,0.1-12.4,0.2 c-6.6,0.3-11.8-2.3-15.8-7.4c-5-6.3-10-12.6-14.8-19c-1.4-1.8-2.9-2.8-5.3-2.6c-2.6,0.2-5.3,0-8-0.1c-1.3,0-2,0.4-2,1.8 c0.2,7,0.3,13.9,0.6,20.9c0.1,3,1,3.7,4,4.2c1,0.2,2.1,0.2,3.1,0.5c0.4,0.1,0.8,0.6,1.2,0.9c-0.4,0.3-0.8,0.7-1.2,0.8 c-1.3,0.1-2.6,0-3.9,0c-5.5,0-11,0-16.5,0.1c-0.4,0-0.9,0-1.3-0.1c-0.3-0.1-0.8-0.5-0.7-0.6c0.1-0.3,0.4-0.6,0.7-0.9 c0,0,0.1,0,0.2-0.1c5-0.3,5.2-3.9,5.3-7.5c0.2-5.1,0.3-10.1,0.3-15.2c0-9.8,0-19.5,0-29.3c0-2.8-0.1-5.6-0.2-8.3 c-0.2-3.4-1.3-4.5-4.7-4.7c-0.6-0.1-1.3,0-1.8-0.2c-0.4-0.1-0.7-0.6-1-0.8c0.3-0.3,0.7-0.6,1-0.8c0.2-0.1,0.5,0,0.7,0 c8.3,0,16.7-0.2,25,0.1c3.9,0.1,8,0.7,11.6,2.1c9.4,3.7,12.6,14.3,7.6,24c-2,3.8-4.7,7-7.9,9.7c-0.8,0.7-1.2,1.3-0.4,2.3 c6.7,7.8,13.3,15.8,20.1,23.5c1.5,1.7,3.8,2.8,5.9,4.1c1.6,1,3.4,0.6,4.5-0.9c1.4-1.9,2.9-3.9,3.8-6.1c7.4-18.8,14.7-37.7,22-56.5 c0.3-0.7,0.4-1.6,0.8-2.2c0.4-0.6,1.1-1.4,1.8-1.5c0.5-0.1,1.3,0.8,1.6,1.4c2.3,5.6,4.5,11.2,6.8,16.8 c5.6,13.6,11.1,27.2,16.7,40.7c0.7,1.7,1.6,3.3,2.6,4.9c1.8,2.8,4.4,4.4,7.8,4.6c0.6,0,1.2,0.5,1.8,0.8c-0.6,0.3-1.2,0.8-1.7,0.8 c-5.5,0-11-0.1-16.5-0.3c-0.6,0-1.2-0.1-1.7-0.2C241.6,192.1,241.4,192,241.3,191.9z M143.8,143.7c0,4.4,0,8.8,0,13.2 c0,1.7,0.7,2.8,2.4,3c3.6,0.3,7.1,0.8,10.7,0.7c3.7-0.1,6.4-2,8.1-5.3c3.2-6.3,3.1-12.7,0.4-19.1c-1.5-3.7-4.3-6.1-8-7.4 c-3.3-1.1-6.6-1.2-10.1-0.8c-3.4,0.4-3.5,0.3-3.5,3.8C143.8,135.6,143.8,139.6,143.8,143.7z M223,137.6c-0.2,0-0.5,0-0.7,0 c-3,8.5-6,17.1-9.1,25.8c6.7,0,12.9,0,19.6,0C229.4,154.7,226.2,146.2,223,137.6z"></path> <path class="st0" d="M302.7,157.2c-5.7,0-11.5,0-17.2,0c-2.7,0-2.8,0.1-2.8,2.6c0.1,8.5,0.3,17,0.5,25.6c0.1,4.2,1.1,5.2,5.2,5.5 c0.6,0.1,1.3,0,1.8,0.2c0.4,0.1,0.8,0.6,1.1,0.9c-0.4,0.3-0.8,0.7-1.2,0.7c-2.8,0-5.7-0.1-8.5-0.1c-3.7,0-7.4,0.2-11.1,0.2 c-1,0-2-0.5-3-0.7c0.8-0.5,1.6-1.2,2.5-1.4c2.2-0.5,3.3-1.8,3.4-4c0.2-2.9,0.5-5.8,0.5-8.7c0-14.7,0-29.4,0-44.1 c0-1.2-0.1-2.3-0.3-3.5c-0.4-3.3-1.2-4.1-4.6-4.3c-0.6,0-1.1,0-1.7-0.2c-0.4-0.2-0.8-0.6-1.2-0.9c0.4-0.2,0.9-0.7,1.3-0.7 c2.2-0.1,4.3,0,6.5,0c4.5,0,8.9,0,13.3,0c0.6,0,1.1,0.4,1.7,0.6c-0.5,0.4-1.1,0.9-1.6,1c-3.5,0.5-4.2,1-4.4,4.5 c-0.3,7-0.3,14.1-0.4,21.1c0,1.6,1.1,1.5,2.2,1.5c5.9,0,11.9,0,17.8,0c5.9,0,11.7,0,17.6,0c1.7,0,2.4-0.4,2.4-2.3 c-0.1-10.8-0.2-21.6-0.2-32.4c0-0.3,0-0.6,0-0.9c-0.3-3.9-0.9-4.5-4.8-4.9c-0.6-0.1-1.1,0-1.6-0.2c-0.4-0.2-0.7-0.6-1.1-0.9 c0.4-0.3,0.8-0.8,1.2-0.8c6.8,0,13.6,0,20.3,0c0.4,0,0.8,0.5,1.3,0.7c-0.4,0.3-0.8,0.9-1.2,0.9c-4,0.6-4.8,1.3-4.9,5.3 c-0.2,11.8-0.2,23.6-0.3,35.4c0,8.5,0,17.1,0.1,25.6c0,2.7,0.3,5.4,0.6,8.1c0.3,2.8,0.9,3.5,3.7,4c1,0.2,2,0.2,2.9,0.4 c0.5,0.1,1,0.6,1.5,1c-0.5,0.2-1,0.7-1.5,0.7c-1.9,0.1-3.8,0-5.7,0c-4.7,0-9.5,0.1-14.2,0.1c-0.8,0-1.6-0.5-2.5-0.7 c0.7-0.5,1.4-1.1,2.1-1.3c3.2-1.1,3.7-1.5,3.8-4.8c0.2-9,0.3-17.9,0.5-26.9c0-1.5-0.6-1.9-2-1.9 C314.7,157.2,308.7,157.2,302.7,157.2z"></path> <path class="st0" d="M84.4,167.6c-3.2,0-6.4-0.1-9.6,0.1c-0.7,0-1.8,0.6-2,1.1c-2.2,5.9-4.3,11.8-6.2,17.8 c-1.1,3.4-0.3,4.2,3.1,4.6c0.5,0.1,0.9,0.6,1.3,0.9c-0.5,0.3-0.9,0.8-1.4,0.8c-6,0.1-12.1,0.1-18.1,0c-0.5,0-0.9-0.5-1.4-0.8 c0.4-0.3,0.9-0.9,1.3-0.9c5,0.1,7.7-2.8,9.4-7.2c7.6-19.6,15.3-39.1,23-58.7c0.4-1,1.3-1.9,1.9-2.8c0.7,0.9,1.7,1.7,2.1,2.8 c7.5,18.1,14.8,36.1,22.3,54.2c0.9,2.2,2,4.4,3.2,6.5c1.8,3.3,4.6,5,8.4,5.2c0.6,0,1.1,0.6,1.7,0.9c-0.6,0.3-1.1,0.7-1.7,0.7 c-5.7,0-11.4-0.1-17-0.3c-0.4,0-0.9-0.3-1.3-0.5c0.2-0.4,0.6-0.7,0.7-1.1c0.2-0.8,0.6-1.7,0.3-2.3c-2.5-6.5-5.2-12.9-7.8-19.4 c-0.5-1.2-1.4-1.6-2.6-1.6C90.7,167.6,87.6,167.6,84.4,167.6z M94.2,163.5c-3.3-8.9-6.5-17.4-9.7-26c-0.2,0-0.5,0-0.7,0 c-3,8.6-6,17.1-9.1,26C81.3,163.5,87.5,163.5,94.2,163.5z"></path> <path class="st0" d="M2.5,184.2c0.1-2.4,0.2-5.1,0.5-7.8c0.1-0.7,0.7-1.3,1.1-2c0.2,0.7,0.7,1.3,0.7,2c0.1,6.4,3.7,11.2,9.9,13 c5.2,1.5,10.3,1.6,15-1.6c6.9-4.7,8.4-14.1,3.3-21.3c-3.2-4.6-7.7-8-12-11.5c-4.6-3.8-9.1-7.6-12.4-12.6c-5.5-8.4-4.6-19.7,2-25.9 c4.9-4.6,11-5.9,17.5-5.6c4,0.2,8,0.9,11.9,1.4c1.5,0.2,2.1,0.7,1.9,2.4c-0.3,3.6-0.4,7.3-0.6,10.9c0,0.5-0.4,0.9-0.6,1.3 c-0.3-0.4-0.9-0.8-1-1.2c-2.1-7.9-4.1-9.8-12.2-10.9c-5.2-0.7-9.9,0.8-13.2,5.1c-3.3,4.3-3.1,10.7,0.7,15.3c2.4,2.9,5.3,5.5,8.2,8 c5.1,4.3,10.6,8.1,14.9,13.3c7.6,9.4,7.6,21.5,0.1,30.4c-3,3.5-6.9,5.6-11.3,6.6c-6.6,1.5-13.1,1.4-19.6-0.6 c-4.3-1.3-4.8-2.1-4.8-6.6C2.5,185.6,2.5,185,2.5,184.2z"></path> <path class="st0" d="M161.4,221.6c0.6-3.1,1.2-6.2,1.7-9.3c0.3-1.9,0.5-3.8,0.8-5.7c0.1-0.4,0.4-0.8,0.6-1.2c0.3,0.3,0.8,0.5,1,0.9 c1.4,2.9,2.8,5.8,4.2,8.6c0.3,0.6,0.6,1.3,1.1,2.3c1.1-2.4,2.1-4.4,3.1-6.4c1-2,2-3.9,3.4-5.8c0.7,4.2,1.3,8.4,2,12.7 c0.2,1.3,0.7,2.5,1.1,3.7c-2.1,0.7-3.5,0.1-3.8-2.3c-0.4-2.4-0.7-4.7-1.4-7.2c-1.6,3.3-3.2,6.6-5,10.2c-1.7-3.2-3.4-6.2-5.2-9.5 c-0.7,3.2-2,5.9-0.3,9C163.3,221.6,162.1,221.6,161.4,221.6z"></path> <path class="st0" d="M124.3,205.8c1.1,0,2.7,0,4.3,0c-1.4,3.2-0.9,14,0.7,15.7c-1.8,0-3.5,0-4.8,0c0.2-2.5,0.4-5,0.6-7.9 c-2.6,0-4.9,0-7.1,0c-0.3,0-0.9,0.5-0.9,0.7c0.1,2.4-0.9,4.9,1,7.2c-1.6,0-3.1,0-4.3,0c0.1-2.6,0.3-5.3,0.3-7.9 c-0.1-2.6,0.9-5.4-1-7.9c1.5,0,3.2,0,4.8,0c-0.3,1.4-0.6,2.9-0.9,4.4c-0.2,1.3,0.2,2.1,1.7,2c1.4-0.1,2.7-0.1,4.1,0 c1.7,0,2.4-0.8,2.3-2.4C124.8,208.5,124.5,207.2,124.3,205.8z"></path> <path class="st0" d="M256.5,221.7c1.5-2.5,1.6-13.8-0.3-16.2c4,0.2,7.6,0.1,11.1,0.6c3.8,0.6,5.8,3.9,5.5,8.4 c-0.2,3.7-3.2,6.8-7,7.2c-1.5,0.2-3.1,0.2-4.6,0.2C259.8,221.9,258.2,221.8,256.5,221.7z M260.4,213.4 C260.5,213.4,260.5,213.4,260.4,213.4c0.1,1.7,0,3.3,0.1,5c0.1,0.7,0.5,1.6,1,1.9c2,1.2,6.1,0,7.2-2.1c1.5-2.7,1.5-5.4-0.1-8.1 c-1.5-2.5-4-3.3-6.8-3.3c-1.1,0-1.5,0.5-1.5,1.6C260.5,210.1,260.4,211.8,260.4,213.4z"></path> <path class="st0" d="M352.3,110.3c1.8-0.6,2.8-0.2,3.6,1.3c0.8,1.6,1.9,3.1,3,4.9c1.1-1.8,2.1-3.3,3.1-4.9c1.1-1.7,1.1-1.7,3.5-1.3 c0,4.3,0,8.6,0,12.9c0,0.3-0.7,0.9-1,0.8c-0.3,0-0.9-0.6-0.9-1c-0.1-2.5,0-4.9,0-7.4c0-0.6-0.1-1.2-0.1-2.3c-1.6,2.5-3,4.6-4.4,6.9 c-1.5-2.3-2.8-4.5-4.2-6.6c-0.1,0-0.3,0.1-0.4,0.1c0,2.9,0,5.9,0,8.8c0,0.5-0.5,1.4-0.9,1.5c-1.1,0.3-1-0.7-1-1.4 C352.3,118.5,352.3,114.4,352.3,110.3z"></path> <path class="st0" d="M27,212.1c7.6,0,15.2,0,22.8,0c0.5,0,1,0.5,1.5,0.8c-0.5,0.3-1.1,0.9-1.6,0.9c-15.2,0-30.4,0-45.6,0 c-0.5,0-1.4-0.3-1.5-0.6c-0.4-1.2,0.5-1.2,1.4-1.2C11.7,212.1,19.3,212.1,27,212.1C27,212.1,27,212.1,27,212.1z"></path> <path class="st0" d="M316.4,212.1c7.5,0,15.1,0,22.6,0c0.5,0,1.1,0.5,1.6,0.8c-0.5,0.3-1.1,0.9-1.6,0.9c-15.1,0.1-30.3,0-45.4,0.1 c-0.8,0-1.7,0.1-1.5-1c0.1-0.3,0.9-0.8,1.5-0.8C301.2,212.1,308.8,212.1,316.4,212.1C316.4,212.1,316.4,212.1,316.4,212.1z"></path> <path class="st0" d="M218,204.6c0.5,1,0.8,1.5,1,2c1.6,3.9,3.1,7.8,4.8,11.6c0.5,1.2,1.5,2.3,2.3,3.5c-1.1,0-2.5,0.1-3.9,0 c-0.3,0-0.6-0.6-0.8-1c-0.3-0.8-0.5-1.7-0.8-2.4c-0.9-2-2.2-2.6-4.3-2c-1.8,0.5-2,2-2.1,3.5c-0.1,0.6,0.2,1.2,0.3,1.9 c-1.3,0-2.5,0-3.4,0C213.2,216.2,215.5,210.7,218,204.6z M215.7,214.7c1.2,0,2.2,0,3.5,0c-0.6-1.6-1.2-2.9-1.8-4.7 C216.8,211.9,216.3,213.2,215.7,214.7z"></path> <path class="st0" d="M82.6,221.7c-0.5,0-1.2,0.1-1.9,0.1c-2.4,0.1-2.8-0.1-3.2-2.4c-0.4-2.1-1.5-3.2-3.2-3.3c-1.2-0.1-2.4,0-3,1.3 c-0.6,1.3-1.7,2.6-0.3,4.2c-1.4,0-2.7,0-3.7,0c2.3-5.5,4.6-11,7.1-16.9c0.7,1.4,1.3,2.4,1.8,3.5c1.4,3.4,2.6,6.8,4.1,10.1 C80.8,219.5,81.7,220.5,82.6,221.7z M74,210.2c-0.5,1.3-1,2-1.2,2.9c-0.1,0.6,0,1.2,0,1.8c0.8,0,1.6,0,2.3-0.1c0.1,0,0.1-1.1,0-1.7 C74.9,212.2,74.5,211.4,74,210.2z"></path> <path class="st0" d="M347,123.8c-1.6,0.5-2.1,0.1-2.1-1.3c0.1-3.4,0-6.9,0-10.5c-1.3,0-2.3,0-3.6,0c0-0.7-0.1-1.2-0.1-1.8 c3.1,0,6.1,0,9.3,0c0,0.5,0.1,1,0.1,1.7c-1.2,0-2.3,0-3.6,0C347,116,347,119.9,347,123.8z"></path> <g> <g> <path class="st1" d="M249.8,59.2c0,0,0.8-1,0.9-1.3c0,0-0.6-5.3-0.9-5.6l1.6-0.2c0,0-0.1,0.3-0.1,0.7c0,0.3,0.3,2.3,0.4,2.4 c0,0,0.3-0.5,0.5-0.8c0,0,2-3.4,2-4c0,0-0.5-4.9-0.9-5.2c0,0,0.6-1.4,1.4-0.1c0,0,0.4,3,0.4,3.1c0,0,0.1,0.1,0.2-0.2 c0,0,2.3-3.7,2-5c0,0,1.8-0.4,1.8,1.2c0,0-0.1-0.1-0.3,0.4c-0.3,0.5-2.5,4.8-2.5,4.8s3-1.4,3.4-2c0,0,1.6,0.4,0.6,1.3 c0,0-0.8,0.4-1.2,0.7c-0.5,0.2-3.1,1.7-3.4,2c-0.3,0.3-2.8,4.8-2.8,5.2c0,0,0.4,0,0.5-0.2c0,0,2.5-1.3,2.8-1.7 c0.2-0.3,1.4,0.4,0.6,1.1c0,0-4.7,2.5-5.1,3.1c-0.4,0.7-0.5,1.2-0.4,1.4c0.2,0.2-0.8,1.9-1.7,2.1 C248.6,62.6,247.2,60.9,249.8,59.2z"></path> <path class="st1" d="M252.2,51.4c-0.6,0.9-1.9,1.2-2.9,0.5c-0.9-0.6-1.2-1.9-0.5-2.9c0.7-0.9,1.9-1.2,2.9-0.5 C252.6,49.2,252.8,50.5,252.2,51.4z"></path> <path class="st1" d="M255.5,44.3c-0.7,0.9-1.9,1.2-2.9,0.5c-0.9-0.6-1.2-1.9-0.5-2.9c0.6-0.9,1.9-1.2,2.9-0.5 C256,42.1,256.2,43.4,255.5,44.3z"></path> <path class="st1" d="M263.5,48.1c-0.7,1-2,1.2-3,0.5c-1-0.7-1.2-2-0.5-3c0.7-1,2-1.2,3-0.5C263.9,45.8,264.2,47.2,263.5,48.1z"></path> <path class="st1" d="M260.1,55.3c-0.7,1-2.1,1.2-3.1,0.5c-1-0.7-1.2-2.1-0.5-3.1c0.7-1,2.1-1.2,3.1-0.5 C260.6,53,260.8,54.4,260.1,55.3z"></path> <path class="st1" d="M261.6,43c-0.8,1.2-2.4,1.4-3.6,0.6c-1.2-0.8-1.4-2.4-0.6-3.6c0.8-1.2,2.4-1.4,3.6-0.6 C262.1,40.3,262.4,41.9,261.6,43z"></path> </g> <g> <path class="st1" d="M239.4,79.7c0,0-0.8,1-0.8,1.4c0,0,0.7,5.3,1,5.6l-1.5,0.2c0,0,0.1-0.3,0.1-0.7c0-0.3-0.4-2.3-0.4-2.4 c0,0-0.3,0.5-0.5,0.8c0,0-2,3.5-2,4c0,0,0.6,4.9,1,5.2c0,0-0.6,1.5-1.4,0.1c0,0-0.4-3-0.5-3.1c0,0-0.1-0.1-0.2,0.2 c0,0-2.2,3.8-1.9,5c0,0-1.8,0.5-1.8-1.2c0,0,0.1,0.1,0.3-0.4c0.3-0.5,2.4-4.9,2.4-4.9s-2.9,1.4-3.4,2.1c0,0-1.6-0.4-0.6-1.3 c0,0,0.8-0.4,1.2-0.7c0.5-0.3,3-1.8,3.3-2.1c0.3-0.4,2.7-4.9,2.7-5.3c0,0-0.4,0.1-0.5,0.2c0,0-2.5,1.4-2.7,1.7 c-0.2,0.3-1.4-0.4-0.6-1.1c0,0,4.6-2.6,5-3.2c0.4-0.7,0.5-1.2,0.3-1.4c-0.2-0.2,0.7-1.9,1.7-2.1C240.6,76.3,242,78,239.4,79.7z"></path> <path class="st1" d="M237.2,87.6c0.6-0.9,1.9-1.2,2.9-0.6c0.9,0.6,1.2,1.9,0.6,2.9c-0.6,0.9-1.9,1.2-2.9,0.6 C236.8,89.8,236.6,88.5,237.2,87.6z"></path> <path class="st1" d="M234,94.8c0.6-0.9,1.9-1.2,2.9-0.6c0.9,0.6,1.2,1.9,0.6,2.9c-0.6,0.9-1.9,1.2-2.9,0.6 C233.6,97,233.4,95.7,234,94.8z"></path> <path class="st1" d="M226,91.1c0.7-1,2-1.2,2.9-0.6c1,0.7,1.2,2,0.6,2.9c-0.7,1-2,1.2-2.9,0.6C225.6,93.4,225.3,92,226,91.1z"></path> <path class="st1" d="M229.2,83.8c0.7-1,2-1.3,3-0.6c1,0.7,1.3,2,0.6,3c-0.7,1-2,1.3-3,0.6C228.8,86.2,228.5,84.8,229.2,83.8z"></path> <path class="st1" d="M228,96.1c0.8-1.2,2.4-1.5,3.6-0.7c1.2,0.8,1.5,2.4,0.7,3.6c-0.8,1.2-2.4,1.5-3.6,0.7 C227.5,98.9,227.2,97.3,228,96.1z"></path> </g> <g> <path class="st1" d="M255.7,68.5c0,0,1.2,0.2,1.6,0.1c0,0,4.3-3.2,4.4-3.6l0.9,1.3c0,0-0.4,0.1-0.6,0.3c-0.3,0.2-1.9,1.4-1.9,1.5 c0,0,0.6,0,0.9,0c0,0,4,0.1,4.5-0.2c0,0,4-2.9,4.1-3.3c0,0,1.6-0.2,0.7,1.2c0,0-2.4,1.8-2.5,1.9c0,0,0,0.1,0.3,0.1 c0,0,4.4,0.2,5.3-0.7c0,0,1.2,1.3-0.2,2.1c0,0,0-0.1-0.5-0.1c-0.5,0-5.4,0.2-5.4,0.2s2.7,1.9,3.4,2c0,0,0.4,1.6-0.8,1.1 c0,0-0.7-0.5-1.2-0.7c-0.4-0.3-3-1.8-3.4-1.9c-0.5-0.1-5.6-0.1-5.9,0.1c0,0,0.2,0.3,0.4,0.4c0,0,2.4,1.5,2.8,1.6 c0.4,0,0.3,1.4-0.7,1c0,0-4.5-2.9-5.2-2.9c-0.8,0-1.3,0.2-1.4,0.4c-0.1,0.2-2.1,0.3-2.7-0.4C252.1,69.2,252.9,67.1,255.7,68.5z"></path> <path class="st1" d="M263.6,66.8c-1.1-0.1-2-1.1-1.9-2.2c0.1-1.1,1.1-2,2.2-1.9c1.1,0.1,2,1.1,1.9,2.2 C265.8,66,264.7,66.9,263.6,66.8z"></path> <path class="st1" d="M271.5,66.2c-1.1-0.1-2-1.1-1.9-2.2c0.1-1.1,1.1-2,2.2-1.9c1.1,0.1,2,1.1,1.9,2.2 C273.6,65.4,272.6,66.3,271.5,66.2z"></path> <path class="st1" d="M272,75c-1.2-0.1-2-1.1-1.9-2.3c0.1-1.2,1.1-2,2.3-1.9c1.2,0.1,2,1.1,1.9,2.3C274.3,74.2,273.2,75.1,272,75z "></path> <path class="st1" d="M264.1,75.6c-1.2-0.1-2.1-1.2-2-2.4c0.1-1.2,1.2-2.1,2.4-2c1.2,0.1,2.1,1.2,2,2.4 C266.4,74.8,265.3,75.7,264.1,75.6z"></path> <path class="st1" d="M275.6,70.8c-1.4-0.1-2.4-1.4-2.3-2.8c0.1-1.4,1.4-2.4,2.8-2.3c1.4,0.1,2.4,1.4,2.3,2.8 C278.2,69.9,277,70.9,275.6,70.8z"></path> </g> <g> <path class="st1" d="M231.7,70.9c0,0-1.3-0.2-1.6,0c0,0-4.2,3.3-4.3,3.7l-1-1.2c0,0,0.4-0.1,0.6-0.3c0.3-0.2,1.8-1.5,1.9-1.6 c0,0-0.6,0-0.9,0c0,0-4,0-4.5,0.3c0,0-3.9,3-4,3.5c0,0-1.6,0.2-0.8-1.2c0,0,2.4-1.9,2.4-2c0,0,0-0.1-0.3-0.1c0,0-4.4,0-5.3,0.8 c0,0-1.3-1.3,0.1-2.1c0,0,0,0.1,0.5,0.1c0.5,0,5.4-0.4,5.4-0.4s-2.7-1.8-3.5-1.9c0,0-0.5-1.6,0.8-1.1c0,0,0.8,0.4,1.2,0.7 c0.4,0.3,3,1.8,3.5,1.8c0.5,0.1,5.6-0.1,5.9-0.3c0,0-0.2-0.3-0.4-0.4c0,0-2.5-1.5-2.9-1.5c-0.4,0-0.3-1.4,0.7-1 c0,0,4.6,2.7,5.3,2.7c0.8,0,1.3-0.2,1.4-0.4c0.1-0.2,2-0.3,2.7,0.4C235.3,70.1,234.5,72.2,231.7,70.9z"></path> <path class="st1" d="M223.8,72.9c1.1,0.1,2,1.1,1.9,2.2c-0.1,1.1-1,2-2.2,1.9c-1.1-0.1-2-1.1-1.9-2.2 C221.7,73.7,222.7,72.8,223.8,72.9z"></path> <path class="st1" d="M216,73.7c1.1,0.1,2,1.1,1.9,2.2c-0.1,1.1-1,2-2.2,1.9c-1.1-0.1-2-1.1-1.9-2.2 C213.9,74.5,214.9,73.6,216,73.7z"></path> <path class="st1" d="M215.2,64.9c1.2,0.1,2.1,1.1,2,2.3c-0.1,1.2-1.1,2.1-2.3,2c-1.2-0.1-2.1-1.1-2-2.3 C213,65.7,214,64.8,215.2,64.9z"></path> <path class="st1" d="M223.1,64c1.2,0.1,2.1,1.1,2.1,2.3c-0.1,1.2-1.1,2.1-2.3,2c-1.2-0.1-2.1-1.1-2-2.3 C220.8,64.9,221.9,64,223.1,64z"></path> <path class="st1" d="M211.8,69.2c1.4,0.1,2.5,1.3,2.4,2.7c-0.1,1.4-1.3,2.5-2.7,2.4c-1.4-0.1-2.5-1.3-2.4-2.7 C209.1,70.2,210.3,69.1,211.8,69.2z"></path> </g> <g> <path class="st1" d="M250.3,78.8c0,0,0.5,1.2,0.8,1.4c0,0,5,1.9,5.4,1.8l-0.5,1.5c0,0-0.2-0.3-0.6-0.4c-0.3-0.1-2.2-0.8-2.3-0.8 c0,0,0.3,0.5,0.5,0.8c0,0,2.1,3.4,2.6,3.7c0,0,4.6,1.8,5,1.7c0,0,1,1.2-0.6,1.3c0,0-2.8-1.1-3-1c0,0-0.1,0,0.1,0.3 c0,0,2.2,3.7,3.5,4.1c0,0-0.4,1.8-1.9,1c0,0,0.1,0-0.2-0.5c-0.3-0.5-3.1-4.4-3.1-4.4s-0.1,3.3,0.2,4c0,0-1.1,1.2-1.4-0.1 c0,0,0-0.9,0-1.4c0-0.5-0.1-3.5-0.2-3.9c-0.2-0.4-3-4.7-3.3-4.9c0,0-0.1,0.3-0.1,0.5c0,0,0,2.9,0.2,3.2c0.2,0.4-1,1-1.2,0 c0,0,0-5.3-0.4-5.9c-0.4-0.6-0.8-1-1-0.9c-0.2,0.1-1.3-1.6-1.1-2.5C247.8,76.2,250,75.7,250.3,78.8z"></path> <path class="st1" d="M256.1,84.5c-0.5-1-0.1-2.2,0.9-2.8c1-0.5,2.2-0.1,2.8,0.9c0.5,1,0.1,2.3-0.9,2.8 C257.9,85.9,256.6,85.6,256.1,84.5z"></path> <path class="st1" d="M260.9,90.8c-0.5-1-0.1-2.2,0.9-2.8c1-0.5,2.2-0.1,2.8,0.9c0.5,1,0.1,2.2-0.9,2.8 C262.6,92.2,261.4,91.8,260.9,90.8z"></path> <path class="st1" d="M253.8,96.1c-0.5-1-0.1-2.3,0.9-2.9c1-0.5,2.3-0.1,2.9,0.9c0.5,1,0.1,2.3-0.9,2.9 C255.6,97.5,254.3,97.1,253.8,96.1z"></path> <path class="st1" d="M248.9,89.8c-0.6-1.1-0.1-2.4,0.9-3c1.1-0.6,2.4-0.1,3,0.9c0.6,1.1,0.1,2.4-0.9,3 C250.8,91.3,249.5,90.9,248.9,89.8z"></path> <path class="st1" d="M259.2,96.8c-0.7-1.3-0.2-2.8,1.1-3.5c1.3-0.7,2.8-0.2,3.5,1.1c0.7,1.3,0.2,2.8-1.1,3.5 C261.4,98.5,259.9,98,259.2,96.8z"></path> </g> <g> <path class="st1" d="M238.8,60.4c0,0-0.5-1.1-0.8-1.4c0,0-5-1.8-5.4-1.7l0.5-1.5c0,0,0.3,0.3,0.6,0.4c0.3,0.1,2.2,0.8,2.3,0.7 c0,0-0.3-0.5-0.5-0.8c0,0-2.1-3.4-2.6-3.6c0,0-4.6-1.7-5.1-1.6c0,0-1-1.2,0.6-1.3c0,0,2.9,1,3,1c0,0,0.1,0-0.1-0.3 c0,0-2.3-3.7-3.5-4c0,0,0.4-1.8,1.9-1c0,0-0.1,0,0.2,0.5c0.3,0.5,3.2,4.4,3.2,4.4s0.1-3.3-0.3-4c0,0,1.1-1.2,1.4,0.1 c0,0,0,0.9,0,1.4c0,0.5,0.1,3.5,0.3,3.9c0.2,0.4,3,4.7,3.4,4.9c0,0,0.1-0.4,0.1-0.5c0,0,0-2.9-0.2-3.2c-0.2-0.4,1-1,1.2,0 c0,0,0.1,5.3,0.5,5.9c0.4,0.6,0.8,1,1.1,0.9c0.2-0.1,1.4,1.6,1.1,2.5C241.3,63.1,239.1,63.5,238.8,60.4z"></path> <path class="st1" d="M232.9,54.8c0.5,1,0.2,2.2-0.8,2.8c-1,0.5-2.2,0.2-2.8-0.8c-0.5-1-0.2-2.2,0.8-2.8 C231.1,53.4,232.4,53.8,232.9,54.8z"></path> <path class="st1" d="M228.1,48.6c0.5,1,0.2,2.2-0.8,2.8c-1,0.5-2.2,0.2-2.8-0.8c-0.5-1-0.2-2.2,0.8-2.8 C226.3,47.2,227.5,47.6,228.1,48.6z"></path> <path class="st1" d="M235.1,43.2c0.6,1,0.2,2.3-0.9,2.9c-1,0.6-2.3,0.2-2.9-0.9c-0.6-1-0.2-2.3,0.9-2.9 C233.2,41.8,234.5,42.2,235.1,43.2z"></path> <path class="st1" d="M240,49.5c0.6,1.1,0.2,2.4-0.9,3c-1.1,0.6-2.4,0.2-3-0.9c-0.6-1.1-0.2-2.4,0.9-3 C238.1,48,239.4,48.4,240,49.5z"></path> <path class="st1" d="M229.7,42.6c0.7,1.2,0.2,2.8-1,3.5c-1.2,0.7-2.8,0.2-3.5-1c-0.7-1.2-0.2-2.8,1-3.5 C227.4,40.9,229,41.4,229.7,42.6z"></path> </g> <g> <path class="st2" d="M241.8,53.4c0,0,0.3-2.8,0.1-3.6c0,0-7.4-9.4-8.4-9.7l2.8-2.2c0,0,0.2,0.8,0.6,1.4c0.4,0.6,3.3,4.1,3.6,4.2 c0,0,0-1.3,0-2.1c0,0-0.1-9-0.8-10.1c0,0-6.8-8.8-7.8-9c0,0-0.5-3.5,2.6-1.7c0,0,4.2,5.4,4.5,5.4c0,0,0.2,0.1,0.1-0.6 c0,0,0-9.8-1.9-11.9c0,0,2.9-2.9,4.8,0.2c0,0-0.2-0.1-0.2,1.2c0,1.2,0.9,12.1,0.9,12.1s4-6.1,4.1-7.9c0,0,3.6-1.1,2.6,1.8 c0,0-1,1.7-1.6,2.7c-0.6,1-3.9,6.9-4.1,7.9c-0.2,1,0.3,12.5,0.7,13.3c0,0,0.6-0.5,0.8-0.9c0,0,3.3-5.6,3.4-6.5 c0.1-0.9,3.2-0.8,2.4,1.5c0,0-6.1,10.3-6,12c0,1.7,0.4,2.9,0.9,3c0.5,0.1,0.8,4.6-0.8,6C243.5,61.4,238.8,59.7,241.8,53.4z"></path> <path class="st2" d="M237.2,35.8c-0.2,2.6-2.3,4.5-4.9,4.3c-2.6-0.2-4.5-2.3-4.3-4.9c0.2-2.6,2.3-4.5,4.9-4.3 C235.4,31.1,237.4,33.3,237.2,35.8z"></path> <path class="st2" d="M235.3,18c-0.2,2.6-2.3,4.5-4.9,4.3c-2.6-0.2-4.5-2.3-4.3-4.9c0.2-2.6,2.3-4.5,4.9-4.3 C233.5,13.3,235.4,15.4,235.3,18z"></path> <path class="st2" d="M255.1,16c-0.2,2.6-2.4,4.6-5.1,4.5c-2.6-0.2-4.6-2.4-4.5-5.1c0.2-2.6,2.4-4.6,5.1-4.5 C253.2,11.1,255.2,13.4,255.1,16z"></path> <path class="st2" d="M257.1,33.8c-0.2,2.7-2.5,4.8-5.2,4.6c-2.7-0.2-4.8-2.5-4.6-5.2c0.2-2.7,2.5-4.8,5.2-4.6 C255.2,28.8,257.3,31.1,257.1,33.8z"></path> <path class="st2" d="M245.4,8.7c-0.2,3.2-2.9,5.6-6.1,5.4c-3.2-0.2-5.6-2.9-5.4-6.1c0.2-3.2,2.9-5.6,6.1-5.4 C243.2,2.8,245.6,5.5,245.4,8.7z"></path> </g> <g> <path class="st2" d="M247,85.3c0,0-0.3,2.8-0.1,3.6c0,0,7.4,9.4,8.4,9.7l-2.8,2.2c0,0-0.2-0.8-0.6-1.4c-0.4-0.6-3.3-4.1-3.6-4.2 c0,0,0,1.3,0,2.1c0,0,0.1,9,0.8,10.1c0,0,6.8,8.8,7.8,9c0,0,0.5,3.5-2.6,1.7c0,0-4.2-5.4-4.5-5.4c0,0-0.2-0.1-0.1,0.6 c0,0,0,9.8,1.9,11.9c0,0-2.9,2.9-4.8-0.2c0,0,0.2,0.1,0.2-1.2c0-1.2-0.9-12.1-0.9-12.1s-4,6.1-4.1,7.9c0,0-3.6,1.1-2.6-1.8 c0,0,1-1.7,1.6-2.7c0.6-1,3.9-6.9,4.1-7.9c0.2-1-0.3-12.5-0.7-13.3c0,0-0.6,0.5-0.8,0.9c0,0-3.3,5.6-3.4,6.5 c-0.1,0.9-3.2,0.8-2.4-1.5c0,0,6.1-10.3,6-12c0-1.7-0.4-2.9-0.9-3c-0.5-0.1-0.8-4.6,0.8-6C245.3,77.3,250,79,247,85.3z"></path> <path class="st2" d="M251.6,102.8c0.2-2.6,2.3-4.5,4.9-4.3c2.6,0.2,4.5,2.3,4.3,4.9c-0.2,2.6-2.3,4.5-4.9,4.3 C253.4,107.6,251.4,105.4,251.6,102.8z"></path> <path class="st2" d="M253.5,120.7c0.2-2.6,2.3-4.5,4.9-4.3c2.6,0.2,4.5,2.3,4.3,4.9c-0.2,2.6-2.3,4.5-4.9,4.3 C255.3,125.4,253.4,123.2,253.5,120.7z"></path> <path class="st2" d="M233.7,122.6c0.2-2.6,2.4-4.6,5.1-4.5c2.6,0.2,4.7,2.4,4.5,5.1c-0.2,2.6-2.4,4.6-5.1,4.5 C235.6,127.5,233.6,125.3,233.7,122.6z"></path> <path class="st2" d="M231.7,104.8c0.2-2.7,2.5-4.8,5.2-4.6c2.7,0.2,4.8,2.5,4.6,5.2c-0.2,2.7-2.5,4.8-5.2,4.6 C233.6,109.9,231.5,107.6,231.7,104.8z"></path> <path class="st2" d="M243.4,130c0.2-3.2,2.9-5.6,6.1-5.4c3.2,0.2,5.6,2.9,5.4,6.1c-0.2,3.2-2.9,5.6-6.1,5.4 C245.6,135.9,243.2,133.2,243.4,130z"></path> </g> <g> <path class="st2" d="M257.1,59.5c0,0,2.7-1,3.2-1.6c0,0,5-10.9,4.9-11.9l3.2,1.5c0,0-0.6,0.5-1,1.2c-0.4,0.7-2.1,4.8-2.1,5.1 c0,0,1.2-0.6,1.9-0.9c0,0,7.9-4.2,8.6-5.3c0,0,4.7-10,4.5-11.1c0,0,2.9-2.1,2.7,1.5c0,0-2.9,6.2-2.8,6.5c0,0,0,0.2,0.6-0.2 c0,0,8.7-4.4,9.7-7.1c0,0,3.9,1.3,2,4.4c0,0,0-0.2-1.1,0.4c-1.1,0.6-10.4,6.3-10.4,6.3s7.3,0.8,8.9,0.1c0,0,2.6,2.7-0.4,3.1 c0,0-2-0.1-3.1-0.2c-1.2-0.1-7.9-0.4-8.9-0.1c-1,0.3-11,5.9-11.5,6.6c0,0,0.8,0.3,1.2,0.3c0,0,6.5,0.4,7.3,0.1 c0.8-0.4,2.1,2.5-0.2,2.8c0,0-11.9-0.8-13.4,0c-1.5,0.8-2.4,1.7-2.3,2.2c0.1,0.5-3.7,2.8-5.7,2C250.8,64.7,250.1,59.7,257.1,59.5 z"></path> <path class="st2" d="M270.9,47.6c-2.3,1-5.1-0.1-6.1-2.4c-1-2.3,0.1-5.1,2.4-6.1c2.3-1,5.1,0,6.1,2.4 C274.3,43.8,273.2,46.6,270.9,47.6z"></path> <path class="st2" d="M285.7,37.7c-2.3,1-5.1,0-6.1-2.4c-1-2.3,0-5.1,2.4-6.1c2.3-1,5.1,0,6.1,2.4C289.1,33.9,288,36.6,285.7,37.7 z"></path> <path class="st2" d="M296.4,54.4c-2.4,1.1-5.2-0.1-6.3-2.5c-1.1-2.4,0-5.2,2.5-6.3c2.4-1.1,5.2,0.1,6.3,2.5 C299.9,50.5,298.8,53.3,296.4,54.4z"></path> <path class="st2" d="M281.5,64.3c-2.5,1.1-5.4-0.1-6.5-2.6c-1.1-2.5,0.1-5.4,2.6-6.5c2.5-1.1,5.4,0.1,6.5,2.6 C285.1,60.3,284,63.2,281.5,64.3z"></path> <path class="st2" d="M298.6,42.4c-2.9,1.3-6.3-0.1-7.6-3c-1.3-2.9,0.1-6.3,3-7.6c2.9-1.3,6.3,0.1,7.6,3 C302.8,37.7,301.5,41.1,298.6,42.4z"></path> </g> <g> <path class="st2" d="M231.3,80.1c0,0-2.6,1.1-3.2,1.7c0,0-4.5,11.1-4.3,12.1l-3.3-1.3c0,0,0.6-0.5,0.9-1.2 c0.3-0.7,1.9-4.9,1.9-5.2c0,0-1.1,0.7-1.8,1c0,0-7.8,4.5-8.4,5.7c0,0-4.3,10.2-4,11.3c0,0-2.8,2.2-2.8-1.4c0,0,2.6-6.3,2.5-6.6 c0,0,0-0.2-0.6,0.2c0,0-8.5,4.8-9.4,7.5c0,0-3.9-1.1-2.2-4.3c0,0,0,0.2,1.1-0.4c1.1-0.6,10.1-6.8,10.1-6.8s-7.3-0.5-8.9,0.3 c0,0-2.7-2.6,0.3-3.1c0,0,2,0,3.1,0c1.2,0,7.9,0,8.9-0.3c1-0.3,10.8-6.4,11.2-7.2c0,0-0.8-0.3-1.2-0.2c0,0-6.5-0.1-7.3,0.3 c-0.8,0.4-2.2-2.4,0.1-2.8c0,0,11.9,0.2,13.4-0.6c1.5-0.9,2.3-1.8,2.2-2.3c-0.1-0.5,3.6-2.9,5.6-2.3 C237.4,74.7,238.3,79.6,231.3,80.1z"></path> <path class="st2" d="M218.3,92.6c2.3-1.1,5.1-0.2,6.2,2.1c1.1,2.3,0.2,5.1-2.1,6.2c-2.3,1.1-5.1,0.2-6.2-2.1 C215,96.5,216,93.7,218.3,92.6z"></path> <path class="st2" d="M203.7,103.2c2.3-1.1,5.1-0.2,6.2,2.1c1.1,2.3,0.2,5.1-2.1,6.2c-2.3,1.1-5.1,0.2-6.2-2.1 C200.5,107.1,201.4,104.3,203.7,103.2z"></path> <path class="st2" d="M192.3,87c2.4-1.2,5.2-0.2,6.4,2.2c1.2,2.4,0.2,5.2-2.2,6.4c-2.4,1.2-5.2,0.2-6.4-2.2 C188.9,91,189.9,88.1,192.3,87z"></path> <path class="st2" d="M206.8,76.4c2.4-1.2,5.4-0.2,6.6,2.3c1.2,2.4,0.2,5.4-2.3,6.6c-2.4,1.2-5.4,0.2-6.6-2.3 C203.3,80.6,204.3,77.6,206.8,76.4z"></path> <path class="st2" d="M190.6,98.9c2.9-1.4,6.3-0.2,7.7,2.6c1.4,2.9,0.2,6.3-2.6,7.7c-2.9,1.4-6.3,0.2-7.7-2.6 C186.6,103.7,187.8,100.3,190.6,98.9z"></path> </g> <g> <path class="st2" d="M259.9,75.6c0,0,2.2,1.9,2.9,2.1c0,0,11.9-0.9,12.8-1.5l0.3,3.5c0,0-0.8-0.3-1.5-0.3c-0.8,0-5.3,0.5-5.5,0.7 c0,0,1.1,0.7,1.7,1.2c0,0,7.5,4.9,8.8,4.9c0,0,11.1-0.8,11.9-1.5c0,0,3.2,1.5,0,3.1c0,0-6.8,0.5-7,0.7c0,0-0.2,0.1,0.4,0.4 c0,0,8.1,5.5,10.9,5c0,0,0.8,4-2.9,3.9c0,0,0.1-0.1-0.9-0.8c-1-0.7-10.6-6-10.6-6s2.9,6.8,4.2,7.8c0,0-1.1,3.6-2.9,1.1 c0,0-0.9-1.8-1.4-2.8c-0.5-1.1-3.5-7.1-4.3-7.8c-0.8-0.7-10.5-6.8-11.4-6.8c0,0,0.1,0.8,0.3,1.2c0,0,2.8,5.9,3.5,6.4 c0.7,0.6-1.1,3-2.5,1.2c0,0-5.1-10.8-6.6-11.7c-1.4-0.9-2.7-1.3-3-0.9c-0.4,0.3-4.2-1.9-4.6-4C252.3,72.6,256.3,69.6,259.9,75.6z "></path> <path class="st2" d="M276.9,81.5c-2-1.5-2.4-4.5-0.9-6.5c1.5-2,4.5-2.4,6.5-0.9c2,1.5,2.4,4.5,0.9,6.5 C281.9,82.7,279,83.1,276.9,81.5z"></path> <path class="st2" d="M292.9,89.9c-2-1.5-2.4-4.5-0.9-6.5c1.5-2,4.5-2.4,6.5-0.9c2,1.5,2.4,4.5,0.9,6.5 C297.8,91.1,294.9,91.5,292.9,89.9z"></path> <path class="st2" d="M283.5,107.4c-2.1-1.6-2.5-4.6-0.9-6.7c1.6-2.1,4.6-2.5,6.7-0.9c2.1,1.6,2.5,4.6,0.9,6.7 C288.6,108.6,285.6,109,283.5,107.4z"></path> <path class="st2" d="M267.6,99.2c-2.2-1.7-2.6-4.7-0.9-6.9c1.7-2.2,4.7-2.6,6.9-0.9c2.2,1.6,2.6,4.7,0.9,6.9 C272.9,100.4,269.8,100.9,267.6,99.2z"></path> <path class="st2" d="M294.9,103.4c-2.5-1.9-3-5.5-1.1-8.1c1.9-2.5,5.5-3,8.1-1.1c2.5,1.9,3,5.5,1.1,8.1 C301.1,104.9,297.5,105.4,294.9,103.4z"></path> </g> <g> <path class="st2" d="M229.2,64c0,0-2.1-1.9-2.9-2.2c0,0-12,0.5-12.8,1.1l-0.2-3.5c0,0,0.7,0.3,1.5,0.3c0.8,0,5.3-0.3,5.5-0.4 c0,0-1.1-0.8-1.7-1.3c0,0-7.3-5.2-8.6-5.3c0,0-11.1,0.3-11.9,1c0,0-3.1-1.6,0.1-3.1c0,0,6.8-0.3,7-0.4c0,0,0.2-0.1-0.4-0.5 c0,0-7.9-5.8-10.7-5.4c0,0-0.6-4,3-3.7c0,0-0.1,0.1,0.9,0.8c1,0.7,10.4,6.4,10.4,6.4s-2.6-6.9-3.9-8c0,0,1.3-3.5,2.9-1 c0,0,0.8,1.8,1.3,2.9c0.5,1.1,3.2,7.2,4,8c0.7,0.8,10.3,7.2,11.2,7.3c0,0-0.1-0.8-0.3-1.2c0,0-2.6-6-3.3-6.5 c-0.7-0.6,1.2-3,2.6-1.1c0,0,4.7,11,6.1,11.9c1.4,1,2.6,1.4,3,1c0.4-0.3,4.2,2.1,4.4,4.2C236.7,67.3,232.6,70.2,229.2,64z"></path> <path class="st2" d="M212.4,57.5c2,1.6,2.3,4.5,0.6,6.5c-1.6,2-4.5,2.3-6.5,0.6c-2-1.6-2.3-4.5-0.6-6.5 C207.5,56.2,210.4,55.9,212.4,57.5z"></path> <path class="st2" d="M196.8,48.5c2,1.6,2.3,4.5,0.6,6.5c-1.6,2-4.5,2.3-6.5,0.6c-2-1.6-2.3-4.5-0.6-6.5 C191.9,47.2,194.8,46.9,196.8,48.5z"></path> <path class="st2" d="M206.8,31.4c2,1.7,2.3,4.7,0.7,6.7c-1.7,2-4.7,2.3-6.7,0.7c-2-1.7-2.3-4.7-0.7-6.7 C201.7,30,204.8,29.7,206.8,31.4z"></path> <path class="st2" d="M222.4,40.2c2.1,1.7,2.4,4.8,0.7,6.9c-1.7,2.1-4.8,2.4-6.9,0.7c-2.1-1.7-2.4-4.8-0.7-6.9 C217.2,38.7,220.3,38.4,222.4,40.2z"></path> <path class="st2" d="M195.2,34.9c2.5,2,2.8,5.7,0.8,8.1c-2,2.5-5.7,2.8-8.1,0.8c-2.5-2-2.8-5.7-0.8-8.1 C189.1,33.2,192.8,32.9,195.2,34.9z"></path> </g> <polygon class="st2" points="230.4,79.1 229.3,62.1 243.5,52.7 258.8,60.3 259.8,77.3 245.6,86.7 "></polygon> </g> </g> </svg> 